<?xml version="1.0" standalone="no"?>
<!DOCTYPE svg PUBLIC "-//W3C//DTD SVG 20010904//EN"
 "http://www.w3.org/TR/2001/REC-SVG-20010904/DTD/svg10.dtd">
<svg version="1.0" xmlns="http://www.w3.org/2000/svg"
 width="300.000000pt" height="300.000000pt" viewBox="0 0 300.000000 300.000000"
 preserveAspectRatio="xMidYMid meet">
<metadata>
Created by potrace 1.11, written by Peter Selinger 2001-2013
</metadata>
<g transform="translate(0.000000,300.000000) scale(0.100000,-0.100000)"
fill="#000000" stroke="none">
<path d="M1009 2660 c-24 -24 -28 -35 -24 -62 11 -65 84 -89 130 -43 37 36 28
106 -14 120 -51 16 -64 14 -92 -15z"/>
<path d="M2463 2635 c-223 -50 -348 -275 -253 -456 11 -23 17 -39 13 -37 -256
123 -374 156 -543 152 -404 -10 -684 -226 -702 -544 l-3 -44 -106 -36 c-155
-53 -259 -116 -349 -210 -28 -30 -43 -37 -72 -38 -21 0 -65 -1 -98 -1 l-60 -1
-105 -102 c-108 -104 -123 -131 -89 -159 9 -7 21 -14 28 -16 6 -1 27 -7 46
-12 108 -30 142 -40 146 -43 1 -2 -2 -23 -8 -46 -13 -51 -4 -64 51 -80 50 -15
87 -54 95 -98 9 -44 41 -61 85 -46 17 6 32 8 35 4 2 -4 16 -52 31 -107 25 -93
48 -135 77 -135 5 0 57 47 116 105 l107 105 3 95 4 96 54 51 c64 60 121 143
166 239 l31 68 26 -18 c68 -48 180 -91 302 -115 72 -14 107 -19 234 -32 150
-14 260 -51 290 -98 8 -13 17 -42 19 -64 11 -110 -116 -175 -325 -167 -153 6
-321 68 -435 161 -50 41 -39 45 -139 -47 -33 -31 -90 -82 -127 -115 -36 -32
-67 -63 -67 -67 -2 -14 92 -102 162 -153 120 -89 308 -168 455 -191 59 -9 291
-10 353 -1 404 59 629 337 562 693 -52 281 -272 424 -723 469 -30 4 -75 8
-100 10 -75 8 -113 16 -157 36 -41 18 -71 58 -68 90 1 8 3 22 3 31 1 9 16 30
33 47 65 64 231 81 379 39 93 -26 190 -65 259 -104 l44 -24 31 29 c17 15 56
51 86 79 30 28 82 76 115 107 54 50 63 55 92 50 187 -34 367 45 440 194 36 73
38 182 6 254 -70 156 -266 244 -450 203z m204 -85 c141 -44 227 -198 178 -317
-49 -117 -160 -182 -301 -178 -38 1 -78 6 -89 12 -11 7 -30 7 -49 2 -17 -5
-41 -9 -54 -9 -21 0 -22 3 -17 33 5 27 1 40 -20 65 -146 174 3 416 250 408 33
-2 79 -8 102 -16z m-1668 -988 c6 -27 28 -73 48 -102 l36 -54 -17 -51 c-72
-205 -244 -361 -473 -428 l-52 -16 -24 42 c-14 23 -45 55 -70 70 l-44 28 18
52 c83 246 230 395 472 478 45 15 85 28 88 29 3 0 11 -22 18 -48z m-615 -304
c-20 -40 -38 -74 -39 -76 -4 -5 -125 29 -125 35 0 2 25 28 55 58 50 50 59 55
100 55 l45 0 -36 -72z m433 -383 c-5 -37 -15 -54 -61 -101 -58 -60 -56 -60
-72 8 -18 74 -20 71 58 104 40 18 75 32 77 33 1 0 1 -19 -2 -44z"/>
<path d="M2400 2319 c-9 -15 -8 -24 1 -35 27 -33 79 1 58 39 -14 23 -46 21
-59 -4z"/>
<path d="M2520 2319 c-9 -15 -8 -24 1 -35 28 -33 80 -3 59 35 -6 12 -19 21
-30 21 -11 0 -24 -9 -30 -21z"/>
<path d="M2641 2318 c-10 -27 3 -48 30 -48 24 0 40 30 28 53 -14 24 -48 21
-58 -5z"/>
<path d="M857 1535 c-143 -49 -106 -268 46 -268 142 0 193 170 76 254 -33 24
-78 29 -122 14z m81 -97 c7 -7 12 -21 12 -33 0 -12 -5 -26 -12 -33 -28 -28
-78 -7 -78 33 0 12 5 26 12 33 7 7 21 12 33 12 12 0 26 -5 33 -12z"/>
<path d="M593 2573 c-7 -2 -13 -15 -13 -28 0 -44 -18 -75 -43 -75 -60 0 -76
-63 -19 -76 15 -3 32 -7 39 -9 6 -2 14 -22 18 -44 13 -76 67 -77 79 -2 6 41
13 48 50 55 27 5 45 20 46 38 0 15 -33 38 -56 38 -26 0 -44 30 -44 75 0 29
-26 41 -57 28z"/>
<path d="M224 941 c-60 -28 -115 -116 -145 -231 -19 -75 -20 -90 -8 -112 10
-19 17 -20 73 -15 218 21 352 155 284 287 -40 77 -126 107 -204 71z m122 -110
c7 -8 10 -22 9 -30 -2 -9 -4 -19 -4 -23 -3 -25 -91 -78 -158 -94 -24 -6 -25
-5 -19 22 4 16 19 53 34 83 39 79 98 97 138 42z"/>
<path d="M2697 736 c-8 -8 -17 -38 -20 -68 -7 -60 -32 -88 -76 -88 -33 0 -57
-17 -66 -47 -8 -29 26 -63 64 -63 45 0 71 -28 77 -85 9 -77 43 -103 90 -70 15
10 23 29 26 65 6 60 30 90 70 90 44 0 68 17 68 48 0 41 -13 53 -66 63 -26 5
-52 13 -57 18 -4 4 -12 36 -17 71 -5 35 -15 67 -22 71 -20 13 -55 10 -71 -5z"/>
<path d="M2293 380 c-35 -14 -32 -67 3 -81 49 -18 79 33 45 75 -15 18 -17 18
-48 6z"/>
</g>
</svg>
